Coordinates
version=1
nRows=24
nColumns=24
inDegrees=yes

Units are S.I. units (second, meters, Newtons, ...)
Angles are in degrees.

endheader
time	pelvis_tilt	pelvis_list	pelvis_rotation	pelvis_tx	pelvis_ty	pelvis_tz	hip_flexion_r	hip_adduction_r	hip_rotation_r	knee_angle_r	ankle_angle_r	subtalar_angle_r	mtp_angle_r	hip_flexion_l	hip_adduction_l	hip_rotation_l	knee_angle_l	ankle_angle_l	subtalar_angle_l	mtp_angle_l	lumbar_extension	lumbar_bending	lumbar_rotation
      6.27500000	     14.67108509	     -8.89218980	     18.44910387	      2.56813800	      0.93282111	     -0.21764524	     -8.55891436	     14.90415420	     -7.24416158	     -9.88978960	     20.67110320	     -5.25438550	      0.00000000	      2.70512640	    -11.89544569	     13.12586791	    -67.83440435	     15.23430876	     -0.49069949	      0.00000000	    -24.17610249	     15.15815936	    -12.93346813
      6.28000000	     14.57860272	     -8.65981844	     18.28250899	      2.57382333	      0.93346715	     -0.21725445	     -9.14655077	     14.76707609	     -7.15698779	     -9.43295121	     20.70849864	     -5.14374662	      0.00000000	      3.45215072	    -11.31769239	     12.98117041	    -67.56233451	     15.71548812	     -0.54949317	      0.00000000	    -24.21728474	     14.81009271	    -12.67278894
      6.28500000	     14.48452234	     -8.42548419	     18.04325462	      2.57948213	      0.93410113	     -0.21683862	     -9.72883160	     14.60373445	     -7.05153909	     -9.00539042	     20.77436765	     -4.94846141	      0.00000000	      4.15672377	    -10.74330217	     12.74884191	    -67.18697329	     16.16508688	     -0.63593919	      0.00000000	    -24.28088636	     14.43884962	    -12.32306173
      6.29000000	     14.48380456	     -8.19416137	     17.67819979	      2.58512658	      0.93483134	     -0.21631292	    -10.41601643	     14.43976352	     -6.84763799	     -8.59487486	     20.84115427	     -4.70536814	      0.00000000	      4.69863770	    -10.22726401	     12.34867467	    -66.68974650	     16.58198771	     -0.77603678	      0.00000000	    -24.48752984	     14.04499803	    -11.76745025
      6.29500000	     14.48053498	     -7.94672997	     17.40258797	      2.59074098	      0.93549769	     -0.21583899	    -11.09451383	     14.27627205	     -6.70968777	     -8.16649697	     20.87317028	     -4.54774646	      0.00000000	      5.25042474	     -9.70332146	     12.04344726	    -66.11551786	     17.02912415	     -0.77095488	      0.00000000	    -24.67170721	     13.66123695	    -11.36314351
      6.30000000	     14.35401737	     -7.75607677	     17.21978663	      2.59633246	      0.93593423	     -0.21547090	    -11.60631154	     14.14604621	     -6.71226065	     -7.74557408	     20.89250955	     -4.35741228	      0.00000000	      5.97860003	     -9.19738254	     11.84967525	    -65.50180255	     17.44179399	     -0.70636077	      0.00000000	    -24.67013631	     13.33955525	    -11.08440048
      6.30500000	     14.32230152	     -7.55526483	     16.84371159	      2.60193131	      0.93651032	     -0.21499727	    -12.23262528	     13.97622977	     -6.57234466	     -7.35956345	     20.96253834	     -4.04395059	      0.00000000	      6.50736691	     -8.73578582	     11.43448871	    -64.74429857	     17.80335603	     -0.74175170	      0.00000000	    -24.82663795	     12.97610920	    -10.52842477
      6.31000000	     14.26149229	     -7.35949029	     16.55743855	      2.60747310	      0.93697361	     -0.21459269	    -12.80538638	     13.82066445	     -6.50402042	     -6.97908916	     21.00482492	     -3.79181335	      0.00000000	      7.08186561	     -8.27339279	     11.12209095	    -63.92309394	     18.19183026	     -0.68193304	      0.00000000	    -24.93413686	     12.63789505	    -10.10839975
      6.31500000	     14.21269488	     -7.17932782	     16.25703518	      2.61304005	      0.93740965	     -0.21416422	    -13.38891131	     13.67813661	     -6.43565800	     -6.59537088	     21.03339756	     -3.53795930	      0.00000000	      7.62102246	     -7.85174616	     10.78880050	    -63.01400570	     18.54282917	     -0.58618131	      0.00000000	    -25.04718918	     12.30979822	     -9.66361385
      6.32000000	     14.16156912	     -7.01288884	     15.95932797	      2.61858358	      0.93778995	     -0.21375097	    -13.95430832	     13.54331026	     -6.38210801	     -6.23009903	     21.06849043	     -3.27955651	      0.00000000	      8.14586311	     -7.45577200	     10.45945116	    -62.02243087	     18.88470678	     -0.47258707	      0.00000000	    -25.15414195	     11.99675593	     -9.22125658
      6.32500000	     14.17894512	     -6.82963939	     15.64951080	      2.62410544	      0.93821455	     -0.21332171	    -14.59410806	     13.40372671	     -6.28102436	     -5.86646100	     21.07618207	     -3.08450896	      0.00000000	      8.55891666	     -7.07980194	     10.11438463	    -60.93125154	     19.22325621	     -0.31465311	      0.00000000	    -25.35038948	     11.67446916	     -8.75713434
      6.33000000	     14.07795598	     -6.70986144	     15.37223975	      2.62960721	      0.93842292	     -0.21298932	    -15.06769606	     13.29185002	     -6.28002492	     -5.54386160	     21.13351364	     -2.77370125	      0.00000000	      9.11178459	     -6.73047075	      9.83185088	    -59.78990543	     19.54064215	     -0.17386483	      0.00000000	    -25.38854676	     11.41451964	     -8.34285067
      6.33500000	     14.03807921	     -6.58395451	     15.05003904	      2.63511321	      0.93868971	     -0.21259367	    -15.60825219	     13.17591121	     -6.21918375	     -5.22816157	     21.15676346	     -2.50701333	      0.00000000	      9.55368988	     -6.42149178	      9.49432379	    -58.54535962	     19.81790384	     -0.00053083	      0.00000000	    -25.50629454	     11.13836806	     -7.86046666
      6.34000000	     14.01559850	     -6.46173269	     14.73791196	      2.64060178	      0.93892756	     -0.21223662	    -16.15618597	     13.06346645	     -6.14728983	     -4.92868045	     21.17735204	     -2.25440881	      0.00000000	      9.94940794	     -6.12793813	      9.18307247	    -57.21676061	     20.08546778	      0.19521465	      0.00000000	    -25.64330098	     10.87719163	     -7.38775705
      6.34500000	     14.00417492	     -6.34878510	     14.42864647	      2.64606897	      0.93913365	     -0.21190620	    -16.70219357	     12.95649078	     -6.06982700	     -4.64852090	     21.19237299	     -2.01456849	      0.00000000	     10.30695903	     -5.85667765	      8.88886681	    -55.80611739	     20.33563710	      0.41346710	      0.00000000	    -25.79328879	     10.62978753	     -6.91562055
      6.35000000	     14.03040104	     -6.23070366	     14.12406002	      2.65151648	      0.93933576	     -0.21159703	    -17.28027134	     12.84905316	     -5.96624532	     -4.38272787	     21.20214412	     -1.82917265	      0.00000000	     10.58894510	     -5.59950037	      8.61505045	    -54.30790532	     20.58560866	      0.66212619	      0.00000000	    -25.99278746	     10.38914056	     -6.45306973
      6.35500000	     13.95745060	     -6.17874046	     13.83703165	      2.65699071	      0.93934737	     -0.21134216	    -17.71871411	     12.78055235	     -5.93193087	     -4.15730198	     21.26523484	     -1.55012818	      0.00000000	     10.97479627	     -5.39072806	      8.38072935	    -52.75705730	     20.81712017	      0.89442161	      0.00000000	    -26.05160507	     10.20941872	     -6.02085534
      6.36000000	     13.94922461	     -6.11240219	     13.50924110	      2.66245938	      0.93942620	     -0.21105793	    -18.22683670	     12.69410220	     -5.81716803	     -3.94567568	     21.30001868	     -1.32115123	      0.00000000	     11.23622860	     -5.20488501	      8.11785950	    -51.10527710	     21.00699723	      1.15277562	      0.00000000	    -26.19918913	     10.00727818	     -5.52599662
      6.36500000	     13.98343246	     -6.04368583	     13.19124191	      2.66788495	      0.93952151	     -0.21080481	    -18.76627890	     12.60950782	     -5.69267863	     -3.75625536	     21.30330150	     -1.13035488	      0.00000000	     11.41857039	     -5.03418348	      7.88809605	    -49.37191580	     21.13914675	      1.42883330	      0.00000000	    -26.40630043	      9.81943628	     -5.03103067
      6.37000000	     13.98414166	     -6.00365338	     12.89050728	      2.67335230	      0.93950956	     -0.21060332	    -19.25484274	     12.54392839	     -5.57924504	     -3.58904734	     21.34196254	     -0.92468316	      0.00000000	     11.60912830	     -4.89032047	      7.70144460	    -47.57064906	     21.28545117	      1.71746037	      0.00000000	    -26.55658538	      9.66177911	     -4.57219586
      6.37500000	     14.06806038	     -5.94472240	     12.58745255	      2.67882350	      0.93956007	     -0.21039985	    -19.83611219	     12.47139859	     -5.41143687	     -3.42163034	     21.35433263	     -0.80309012	      0.00000000	     11.65996336	     -4.76162844	      7.52508001	    -45.67997774	     21.38147456	      2.02045158	      0.00000000	    -26.80617773	      9.49258660	     -4.10445005
      6.38000000	     14.05953931	     -5.95361332	     12.28033077	      2.68428542	      0.93945137	     -0.21025476	    -20.27857125	     12.43136872	     -5.28194783	     -3.31463082	     21.40240351	     -0.57205349	      0.00000000	     11.79870616	     -4.68342608	      7.39203992	    -43.74464297	     21.41829205	      2.30331272	      0.00000000	    -26.94319726	      9.38631409	     -3.61445835
      6.38500000	     14.13929099	     -5.93461408	     11.97347166	      2.68979689	      0.93940038	     -0.21010170	    -20.82548826	     12.37803493	     -5.08594581	     -3.20480005	     21.43127301	     -0.44962128	      0.00000000	     11.78107940	     -4.61349304	      7.26901790	    -41.71772247	     21.45298806	      2.60317086	      0.00000000	    -27.17908213	      9.26121442	     -3.15603610
      6.39000000	     14.05298170	     -5.99960577	     11.74623755	      2.69532732	      0.93906366	     -0.21005204	    -21.14764984	     12.39626792	     -5.00716880	     -3.15035271	     21.50010060	     -0.23201249	      0.00000000	     11.96068252	     -4.58544941	      7.27506480	    -39.68718851	     21.43331185	      2.95785705	      0.00000000	    -27.19669040	      9.22835777	     -2.78075586
